<?xml version="1.0" encoding="UTF-8"?>
<svg width="60px" height="60px" viewBox="0 0 60 60" version="1.1" xmlns="http://www.w3.org/2000/svg" xmlns:xlink="http://www.w3.org/1999/xlink">
    <!-- Generator: Sketch 55.2 (78181) - https://sketchapp.com -->
    <title>Group 6</title>
    <desc>Created with Sketch.</desc>
    <g id="Proposal" stroke="none" stroke-width="1" fill="none" fill-rule="evenodd">
        <g id="AvoitizEyes--Article" transform="translate(-106.000000, -972.000000)">
            <g id="Group-2" transform="translate(106.000000, 972.000000)">
                <g id="Group-6">
                    <circle id="Oval" fill="#E2231A" cx="30" cy="30" r="30"></circle>
                    <path d="M39.1,42 C36.499987,42 34.53334,40.933344 33.2,38.8 C32.066661,36.999991 31.5,34.800013 31.5,32.2 C31.5,28.86665 32.3499915,25.86668 34.05,23.2 C35.7500085,20.53332 38.333316,18.400008 41.8,16.8 L42.7,18.6 C40.633323,19.466671 38.8500075,20.833324 37.35,22.7 C35.8499925,24.566676 35.1,26.466657 35.1,28.4 C35.1,29.200004 35.199999,29.899997 35.4,30.5 C36.466672,29.633329 37.699993,29.2 39.1,29.2 C40.900009,29.2 42.4166605,29.7833275 43.65,30.95 C44.8833395,32.1166725 45.5,33.666657 45.5,35.6 C45.5,37.400009 44.8833395,38.9166605 43.65,40.15 C42.4166605,41.3833395 40.900009,42 39.1,42 Z M22.1,42 C19.499987,42 17.53334,40.933344 16.2,38.8 C15.066661,36.999991 14.5,34.800013 14.5,32.2 C14.5,28.86665 15.3499915,25.86668 17.05,23.2 C18.7500085,20.53332 21.333316,18.400008 24.8,16.8 L25.7,18.6 C23.633323,19.466671 21.8500075,20.833324 20.35,22.7 C18.8499925,24.566676 18.1,26.466657 18.1,28.4 C18.1,29.200004 18.199999,29.899997 18.4,30.5 C19.466672,29.633329 20.699993,29.2 22.1,29.2 C23.900009,29.2 25.4166605,29.7833275 26.65,30.95 C27.8833395,32.1166725 28.5,33.666657 28.5,35.6 C28.5,37.400009 27.8833395,38.9166605 26.65,40.15 C25.4166605,41.3833395 23.900009,42 22.1,42 Z" id="“" fill="#FFFFFF" fill-rule="nonzero"></path>
                </g>
            </g>
        </g>
    </g>
</svg>